<svg width="16" height="16" viewBox="0 0 16 16" fill="none" xmlns="http://www.w3.org/2000/svg">
<g filter="url(#filter0_i_16_4)">
<path fill-rule="evenodd" clip-rule="evenodd" d="M8 0C8.93016 0 9.68421 0.754047 9.68421 1.68421V6.31579H14.3158C15.246 6.31579 16 7.06984 16 8C16 8.93016 15.246 9.68421 14.3158 9.68421H9.68421V14.3158C9.68421 15.246 8.93016 16 8 16C7.06984 16 6.31579 15.246 6.31579 14.3158V9.68421H1.68421C0.754047 9.68421 0 8.93016 0 8C0 7.06984 0.754047 6.31579 1.68421 6.31579H6.31579V1.68421C6.31579 0.754047 7.06984 0 8 0Z" fill="#868A99"/>
</g>
<defs>
<filter id="filter0_i_16_4" x="0" y="0" width="18" height="18" filterUnits="userSpaceOnUse" color-interpolation-filters="sRGB">
<feFlood flood-opacity="0" result="BackgroundImageFix"/>
<feBlend mode="normal" in="SourceGraphic" in2="BackgroundImageFix" result="shape"/>
<feColorMatrix in="SourceAlpha" type="matrix" values="0 0 0 0 0 0 0 0 0 0 0 0 0 0 0 0 0 0 127 0" result="hardAlpha"/>
<feOffset dx="2" dy="2"/>
<feGaussianBlur stdDeviation="2"/>
<feComposite in2="hardAlpha" operator="arithmetic" k2="-1" k3="1"/>
<feColorMatrix type="matrix" values="0 0 0 0 0 0 0 0 0 0 0 0 0 0 0 0 0 0 0.25 0"/>
<feBlend mode="normal" in2="shape" result="effect1_innerShadow_16_4"/>
</filter>
</defs>
</svg>
