<svg width="24" height="25" viewBox="0 0 24 25" fill="none" xmlns="http://www.w3.org/2000/svg">
<g clip-path="url(#clip0_2_24202)">
<path d="M8.71429 20.6C8.71429 21.095 9.13214 21.5 9.64286 21.5H13.3571C13.8679 21.5 14.2857 21.095 14.2857 20.6V19.7H8.71429V20.6ZM11.5 3.5C7.91571 3.5 5 6.326 5 9.8C5 11.942 6.105 13.823 7.78571 14.966V17C7.78571 17.495 8.20357 17.9 8.71429 17.9H14.2857C14.7964 17.9 15.2143 17.495 15.2143 17V14.966C16.895 13.823 18 11.942 18 9.8C18 6.326 15.0843 3.5 11.5 3.5ZM14.1464 13.49L13.3571 14.03V16.1H9.64286V14.03L8.85357 13.49C7.6 12.644 6.85714 11.267 6.85714 9.8C6.85714 7.316 8.93714 5.3 11.5 5.3C14.0629 5.3 16.1429 7.316 16.1429 9.8C16.1429 11.267 15.4 12.644 14.1464 13.49Z" fill="#FAB60F"/>
</g>
<defs>
<clipPath id="clip0_2_24202">
<rect width="24" height="24" fill="white" transform="translate(0 0.5)"/>
</clipPath>
</defs>
</svg>
