<svg width="51" height="51" viewBox="0 0 51 51" fill="none" xmlns="http://www.w3.org/2000/svg">
<g clip-path="url(#clip0_2_24176)">
<path d="M37.8463 9.49875C37.6763 9.49875 37.5063 9.45625 37.3575 9.37125C33.2775 7.2675 29.75 6.375 25.5213 6.375C21.3138 6.375 17.3188 7.37375 13.685 9.37125C13.175 9.6475 12.5375 9.45625 12.24 8.94625C11.9637 8.43625 12.155 7.7775 12.665 7.50125C16.6175 5.355 20.9525 4.25 25.5213 4.25C30.0475 4.25 34 5.24875 38.335 7.48C38.8663 7.75625 39.0575 8.39375 38.7812 8.90375C38.59 9.28625 38.2288 9.49875 37.8463 9.49875ZM7.4375 20.655C7.225 20.655 7.0125 20.5912 6.82125 20.4638C6.3325 20.1238 6.22625 19.465 6.56625 18.9763C8.67 16.0013 11.3475 13.6637 14.535 12.0275C21.2075 8.585 29.75 8.56375 36.4438 12.0063C39.6313 13.6425 42.3088 15.9587 44.4125 18.9125C44.7525 19.38 44.6463 20.06 44.1575 20.4C43.6688 20.74 43.01 20.6337 42.67 20.145C40.7575 17.4675 38.335 15.3637 35.4663 13.8975C29.3675 10.7737 21.5688 10.7738 15.4913 13.9188C12.6012 15.4062 10.1787 17.5313 8.26625 20.2088C8.09625 20.5063 7.7775 20.655 7.4375 20.655ZM20.7188 46.3038C20.4425 46.3038 20.1663 46.1975 19.975 45.985C18.1262 44.1362 17.1275 42.9463 15.7037 40.375C14.2375 37.7612 13.4725 34.5737 13.4725 31.1525C13.4725 24.8412 18.87 19.6988 25.5 19.6988C32.13 19.6988 37.5275 24.8412 37.5275 31.1525C37.5275 31.7475 37.06 32.215 36.465 32.215C35.87 32.215 35.4025 31.7475 35.4025 31.1525C35.4025 26.01 30.9613 21.8238 25.5 21.8238C20.0387 21.8238 15.5975 26.01 15.5975 31.1525C15.5975 34.2125 16.2775 37.0387 17.5738 39.3338C18.9338 41.7775 19.8688 42.8188 21.505 44.4762C21.9088 44.9012 21.9088 45.56 21.505 45.985C21.2713 46.1975 20.995 46.3038 20.7188 46.3038ZM35.955 42.3725C33.4263 42.3725 31.195 41.735 29.3675 40.4812C26.2013 38.335 24.31 34.85 24.31 31.1525C24.31 30.5575 24.7775 30.09 25.3725 30.09C25.9675 30.09 26.435 30.5575 26.435 31.1525C26.435 34.1488 27.965 36.975 30.5575 38.7175C32.0663 39.7375 33.83 40.2262 35.955 40.2262C36.465 40.2262 37.315 40.1625 38.165 40.0137C38.7388 39.9075 39.2913 40.29 39.3975 40.885C39.5038 41.4587 39.1213 42.0112 38.5262 42.1175C37.315 42.3512 36.2525 42.3725 35.955 42.3725ZM31.6838 46.75C31.5988 46.75 31.4925 46.7287 31.4075 46.7075C28.0287 45.7725 25.8188 44.5187 23.5025 42.245C20.5275 39.2912 18.8913 35.36 18.8913 31.1525C18.8913 27.71 21.8238 24.905 25.4363 24.905C29.0488 24.905 31.9813 27.71 31.9813 31.1525C31.9813 33.4263 33.9575 35.275 36.4012 35.275C38.845 35.275 40.8213 33.4263 40.8213 31.1525C40.8213 23.1413 33.915 16.6388 25.415 16.6388C19.38 16.6388 13.855 19.9962 11.3687 25.2025C10.54 26.9237 10.115 28.9425 10.115 31.1525C10.115 32.81 10.2637 35.4238 11.5387 38.8237C11.7512 39.3763 11.475 39.9925 10.9225 40.1838C10.37 40.3962 9.75375 40.0988 9.5625 39.5675C8.52125 36.7838 8.01125 34.0212 8.01125 31.1525C8.01125 28.6025 8.5 26.2863 9.45625 24.2675C12.2825 18.3387 18.5512 14.4925 25.415 14.4925C35.0838 14.4925 42.9463 21.9512 42.9463 31.1312C42.9463 34.5737 40.0138 37.3787 36.4012 37.3787C32.7887 37.3787 29.8563 34.5737 29.8563 31.1312C29.8563 28.8575 27.88 27.0088 25.4363 27.0088C22.9925 27.0088 21.0163 28.8575 21.0163 31.1312C21.0163 34.765 22.4188 38.165 24.99 40.715C27.0088 42.7125 28.9425 43.8175 31.9388 44.6463C32.5125 44.795 32.8313 45.39 32.6825 45.9425C32.5763 46.4313 32.13 46.75 31.6838 46.75Z" fill="white"/>
</g>
<defs>
<clipPath id="clip0_2_24176">
<rect width="51" height="51" fill="white"/>
</clipPath>
</defs>
</svg>
