<svg width="34" height="35" viewBox="0 0 34 35" fill="none" xmlns="http://www.w3.org/2000/svg">
<g  clip-path="url(#clip0_2_24185)">
<path d="M14.875 18.9167H11.3334V14.6667H14.875V11.125H19.125V14.6667H22.6667V18.9167H19.125V22.4583H14.875V18.9167ZM17 3.33333L5.66669 7.58333V16.2108C5.66669 23.365 10.4975 30.0375 17 31.6667C23.5025 30.0375 28.3334 23.365 28.3334 16.2108V7.58333L17 3.33333ZM25.5 16.2108C25.5 21.8775 21.8875 27.1192 17 28.72C12.1125 27.1192 8.50002 21.8917 8.50002 16.2108V9.5525L17 6.365L25.5 9.5525V16.2108Z" fill="white"/>
</g>
<defs>
<clipPath id="clip0_2_24185">
<rect width="34" height="34" fill="white" transform="translate(0 0.5)"/>
</clipPath>
</defs>
</svg>
