<svg width="34" height="35" viewBox="0 0 34 35" fill="none" xmlns="http://www.w3.org/2000/svg">
<g opacity="0.25" clip-path="url(#clip0_2_24188)">
<path d="M12.75 6.16667V8.12167C11.5741 7.65417 10.3133 7.41334 9.05248 7.41334C6.51664 7.41334 3.98081 8.37667 2.03998 10.3175L6.75748 15.035H8.32998V16.6075C9.54831 17.8258 11.135 18.4633 12.7358 18.5342V21.75H8.49998V26C8.49998 27.5583 9.77498 28.8333 11.3333 28.8333H25.5C27.8516 28.8333 29.75 26.935 29.75 24.5833V6.16667H12.75ZM11.1775 15.2475V12.2017H7.94748L6.47414 10.7283C7.28164 10.4167 8.15998 10.2467 9.05248 10.2467C10.9508 10.2467 12.7216 10.9833 14.0675 12.315L16.065 14.3125L15.7816 14.5958C15.0591 15.3183 14.0958 15.7292 13.0616 15.7292C12.3958 15.7292 11.7441 15.5592 11.1775 15.2475ZM26.9166 24.5833C26.9166 25.3625 26.2791 26 25.5 26C24.7208 26 24.0833 25.3625 24.0833 24.5833V21.75H15.5833V18.0808C16.3908 17.755 17.1416 17.2733 17.7933 16.6217L18.0766 16.3383L22.0858 20.3333H24.0833V18.3358L15.5833 9.87834V9.00001H26.9166V24.5833Z" fill="white"/>
</g>
<defs>
<clipPath id="clip0_2_24188">
<rect width="34" height="34" fill="white" transform="translate(0 0.5)"/>
</clipPath>
</defs>
</svg>
