<svg width="34" height="35" viewBox="0 0 34 35" fill="none" xmlns="http://www.w3.org/2000/svg">
<g opacity="0.25" clip-path="url(#clip0_2_24182)">
<path d="M17 3.33333C9.44919 9.77916 5.66669 15.3467 5.66669 20.05C5.66669 27.105 11.05 31.6667 17 31.6667C22.95 31.6667 28.3334 27.105 28.3334 20.05C28.3334 15.3467 24.5509 9.77916 17 3.33333ZM17 28.8333C12.2542 28.8333 8.50002 25.1925 8.50002 20.05C8.50002 16.735 11.2625 12.3433 17 7.10166C22.7375 12.3433 25.5 16.7208 25.5 20.05C25.5 25.1925 21.7459 28.8333 17 28.8333ZM11.0925 20.3333C11.6167 20.3333 12.0417 20.7017 12.1409 21.2117C12.7217 24.3567 15.3709 25.4333 17.2975 25.2775C17.9067 25.2492 18.4167 25.7308 18.4167 26.34C18.4167 26.9067 17.9634 27.3742 17.3967 27.4025C14.3792 27.5867 10.8517 25.8583 10.0442 21.5658C9.93085 20.9283 10.4409 20.3333 11.0925 20.3333Z" fill="white"/>
</g>
<defs>
<clipPath id="clip0_2_24182">
<rect width="34" height="34" fill="white" transform="translate(0 0.5)"/>
</clipPath>
</defs>
</svg>
